Crispy Terminal Medium.ufo
<glyph name="asterisk" format="2">
  <advance width="1015"/>
  <unicode hex="002A"/>
  <outline>
    <contour>
      <point x="307" y="971" type="line"/>
      <point x="503" y="1225" type="line"/>
      <point x="709" y="969" type="line"/>
      <point x="859" y="1086" type="line"/>
      <point x="570" y="1275" type="line"/>
      <point x="940" y="1303" type="line"/>
      <point x="901" y="1447" type="line"/>
      <point x="570" y="1335" type="line"/>
      <point x="613" y="1601" type="line"/>
      <point x="393" y="1601" type="line"/>
      <point x="435" y="1334" type="line"/>
      <point x="111" y="1446" type="line"/>
      <point x="71" y="1304" type="line"/>
      <point x="434" y="1273" type="line"/>
      <point x="156" y="1085" type="line"/>
    </contour>
  </outline>
</glyph>
<glyph name="three" format="2">
  <advance width="2720"/>
  <unicode hex="0033"/>
  <outline>
    <contour>
      <point x="185" y="0" type="line" identifier="O9abUc1nmN"/>
      <point x="2590" y="0" type="line" identifier="kMJYMTfXCq"/>
      <point x="2590" y="942" type="line" identifier="su2XmdS8e8"/>
      <point x="2309" y="942" type="line" identifier="JQaOzDQqlF"/>
      <point x="2427" y="1142" type="line"/>
      <point x="2427" y="1600" type="line" identifier="xg8x2Ki40p"/>
      <point x="257" y="1600" type="line" identifier="pE1XSRiy68"/>
      <point x="257" y="1027" type="line" identifier="5lNstGRcSF"/>
      <point x="701" y="1027" type="line" identifier="AcE5xKDZfE"/>
      <point x="701" y="1305" type="line" identifier="7ogBYufWpl"/>
      <point x="1983" y="1305" type="line" identifier="RHLvSX2Jv6"/>
      <point x="1983" y="1123" type="line"/>
      <point x="1882" y="942" type="line" identifier="iic1IBkDqp"/>
      <point x="757" y="941" type="line" identifier="lRLJEhXMlO"/>
      <point x="757" y="655" type="line" identifier="8aKgEELrVU"/>
      <point x="2147" y="655" type="line" identifier="Dm8zjmbhNr"/>
      <point x="2147" y="295" type="line" identifier="xv9CFHiFgB"/>
      <point x="628" y="295" type="line" identifier="YajKQV3MHP"/>
      <point x="628" y="596" type="line" identifier="36SchVkwze"/>
      <point x="185" y="596" type="line" identifier="tVui9PiOjA"/>
    </contour>
  </outline>
</glyph>
<glyph name="four" format="2">
  <advance width="2689"/>
  <unicode hex="0034"/>
  <outline>
    <contour>
      <point x="1899" y="0" type="line"/>
      <point x="2343" y="0" type="line"/>
      <point x="2343" y="627" type="line"/>
      <point x="2575" y="627" type="line"/>
      <point x="2575" y="931" type="line"/>
      <point x="2343" y="931" type="line"/>
      <point x="2343" y="1600" type="line"/>
      <point x="1899" y="1600" type="line"/>
      <point x="1899" y="931" type="line"/>
      <point x="611" y="931" type="line"/>
      <point x="611" y="1049" type="line"/>
      <point x="734" y="1600" type="line"/>
      <point x="290" y="1600" type="line"/>
      <point x="167" y="1049" type="line"/>
      <point x="167" y="627" type="line"/>
      <point x="1899" y="627" type="line"/>
    </contour>
  </outline>
</glyph>
<glyph name="eight" format="2">
  <advance width="2861"/>
  <unicode hex="0038"/>
  <outline>
    <contour>
      <point x="2057" y="654" type="line"/>
      <point x="2252" y="525" type="line"/>
      <point x="2252" y="292" type="line"/>
      <point x="609" y="292" type="line"/>
      <point x="609" y="520" type="line"/>
      <point x="804" y="654" type="line"/>
    </contour>
    <contour>
      <point x="2477" y="792" type="line"/>
      <point x="2477" y="808" type="line"/>
      <point x="2693" y="979" type="line"/>
      <point x="2693" y="1600" type="line"/>
      <point x="168" y="1600" type="line"/>
      <point x="168" y="979" type="line"/>
      <point x="385" y="808" type="line"/>
      <point x="385" y="792" type="line"/>
      <point x="165" y="616" type="line"/>
      <point x="165" y="0" type="line"/>
      <point x="2696" y="0" type="line"/>
      <point x="2696" y="616" type="line"/>
    </contour>
    <contour>
      <point x="804" y="946" type="line"/>
      <point x="612" y="1073" type="line"/>
      <point x="612" y="1308" type="line"/>
      <point x="2249" y="1308" type="line"/>
      <point x="2249" y="1073" type="line"/>
      <point x="2057" y="946" type="line"/>
    </contour>
  </outline>
</glyph>
<glyph name="A" format="2">
  <advance width="2572"/>
  <unicode hex="0041"/>
  <outline>
    <contour>
      <point x="51" y="26" type="line" smooth="yes"/>
      <point x="468" y="-24" type="line"/>
      <point x="793" y="1296" type="line" smooth="yes"/>
      <point x="1768" y="1296" type="line"/>
      <point x="2094" y="-24" type="line" smooth="yes"/>
      <point x="2521" y="25" type="line" smooth="yes"/>
      <point x="2094" y="1600" type="line" smooth="yes"/>
      <point x="478" y="1600" type="line" smooth="yes"/>
    </contour>
    <contour>
      <point x="553" y="573" type="line"/>
      <point x="2008" y="573" type="line"/>
      <point x="1919" y="877" type="line"/>
      <point x="643" y="877" type="line"/>
    </contour>
  </outline>
</glyph>
<glyph name="B" format="2">
  <advance width="2910"/>
  <unicode hex="0042"/>
  <outline>
    <contour>
      <point x="266" y="0" type="line"/>
      <point x="2442" y="0" type="line"/>
      <point x="2745" y="419" type="line"/>
      <point x="2745" y="930" type="line"/>
      <point x="2284" y="930" type="line"/>
      <point x="2420" y="1137" type="line"/>
      <point x="2420" y="1600" type="line"/>
      <point x="266" y="1600" type="line"/>
    </contour>
    <contour>
      <point x="710" y="292" type="line"/>
      <point x="710" y="654" type="line"/>
      <point x="2301" y="654" type="line"/>
      <point x="2301" y="478" type="line"/>
      <point x="2162" y="292" type="line"/>
    </contour>
    <contour>
      <point x="710" y="946" type="line"/>
      <point x="710" y="1308" type="line"/>
      <point x="1976" y="1308" type="line"/>
      <point x="1976" y="1159" type="line"/>
      <point x="1841" y="946" type="line"/>
    </contour>
  </outline>
</glyph>
<glyph name="C" format="2">
  <advance width="2719"/>
  <unicode hex="0043"/>
  <outline>
    <contour>
      <point x="163" y="0" type="line" identifier="7lPhzTnk2Z"/>
      <point x="2525" y="0" type="line" identifier="qJVLZGnkwh"/>
      <point x="2525" y="610" type="line" identifier="nDnDHzAMXL"/>
      <point x="2081" y="610" type="line" identifier="QX1V08aTu0"/>
      <point x="2081" y="304" type="line" identifier="Y750RHTvDj"/>
      <point x="607" y="304" type="line" identifier="L2LsGnXiZ2"/>
      <point x="607" y="1057" type="line" identifier="sUWsr03vF4"/>
      <point x="764" y="1296" type="line" identifier="dbOUe6OhxL"/>
      <point x="2076" y="1296" type="line" identifier="5BjRbcud80"/>
      <point x="2076" y="983" type="line" identifier="fNVDqwQo2o"/>
      <point x="2520" y="983" type="line" identifier="wLqQQx7QVN"/>
      <point x="2520" y="1600" type="line" identifier="9eJelv8BOw"/>
      <point x="466" y="1600" type="line" identifier="lfZev3ICaC"/>
      <point x="163" y="1155" type="line" identifier="V1EWIdPahq"/>
    </contour>
  </outline>
</glyph>
<glyph name="D" format="2">
  <advance width="2822"/>
  <unicode hex="0044"/>
  <outline>
    <contour>
      <point x="266" y="0" type="line" identifier="IF8msvcgce"/>
      <point x="2346" y="0" type="line" identifier="ydeACnPZN4"/>
      <point x="2654" y="451" type="line" identifier="wIy2omw5Da"/>
      <point x="2654" y="1600" type="line" identifier="gh4oopoKIn"/>
      <point x="266" y="1600" type="line" identifier="hTYdJwlqIh"/>
    </contour>
    <contour>
      <point x="710" y="304" type="line" identifier="YShvMHvurg"/>
      <point x="710" y="1296" type="line" identifier="OGdfzPVlic"/>
      <point x="2211" y="1296" type="line" identifier="4w8cXO1HlF"/>
      <point x="2211" y="524" type="line" identifier="5OFemp6E2Y"/>
      <point x="2035" y="304" type="line" identifier="DiLdvAK6bW"/>
    </contour>
  </outline>
</glyph>
<glyph name="E" format="2">
  <advance width="2667"/>
  <unicode hex="0045"/>
  <outline>
    <contour>
      <point x="266" y="0" type="line" identifier="fZynkQ4XHB"/>
      <point x="2442" y="0" type="line" identifier="FAQNpgUPxV"/>
      <point x="2442" y="614" type="line" identifier="gHI0YjrPxR"/>
      <point x="2029" y="614" type="line" identifier="gxCIuXb4el"/>
      <point x="2029" y="292" type="line" identifier="5cgTYOhATF"/>
      <point x="710" y="292" type="line" identifier="bWs42DaCgU"/>
      <point x="710" y="653" type="line" identifier="VtD2aADJmn"/>
      <point x="1705" y="653" type="line" identifier="PpbsFdHAnS"/>
      <point x="1705" y="945" type="line" identifier="8WuC5p8Ax5"/>
      <point x="710" y="945" type="line" identifier="m39IWn9ntA"/>
      <point x="710" y="1308" type="line" identifier="gQ21I4SHQg"/>
      <point x="2028" y="1308" type="line" identifier="eqNb2VTwYs"/>
      <point x="2028" y="1004" type="line" identifier="mLmcFoJA4m"/>
      <point x="2441" y="1004" type="line" identifier="e79n7CoPy1"/>
      <point x="2441" y="1600" type="line" identifier="qYRmo14Il5"/>
      <point x="266" y="1600" type="line" identifier="HmJIcnLWfC"/>
    </contour>
  </outline>
</glyph>
<glyph name="P" format="2">
  <advance width="2711"/>
  <unicode hex="0050"/>
  <outline>
    <contour>
      <point x="256" y="0" type="line"/>
      <point x="739" y="0" type="line"/>
      <point x="739" y="366" type="line"/>
      <point x="2550" y="366" type="line"/>
      <point x="2550" y="1600" type="line"/>
      <point x="256" y="1600" type="line"/>
    </contour>
    <contour>
      <point x="739" y="737" type="line"/>
      <point x="739" y="1229" type="line"/>
      <point x="2067" y="1229" type="line"/>
      <point x="2067" y="737" type="line"/>
    </contour>
  </outline>
</glyph>
<glyph name="Z" format="2">
  <advance width="2680"/>
  <unicode hex="005A"/>
  <outline>
    <contour>
      <point x="161" y="0" type="line"/>
      <point x="2524" y="0" type="line" identifier="pzdvPTirLJ"/>
      <point x="2524" y="594" type="line" identifier="91SxUS0iwG"/>
      <point x="2080" y="594" type="line"/>
      <point x="2080" y="292" type="line"/>
      <point x="605" y="292" type="line"/>
      <point x="605" y="454" type="line"/>
      <point x="2518" y="1150" type="line" identifier="yyb1NCCI5w"/>
      <point x="2518" y="1600" type="line" identifier="5FogYRSgkk"/>
      <point x="176" y="1600" type="line" identifier="svlFvrau4c"/>
      <point x="176" y="1083" type="line" identifier="LQ9fBsTy9K"/>
      <point x="596" y="1083" type="line"/>
      <point x="597" y="1308" type="line"/>
      <point x="2074" y="1308" type="line"/>
      <point x="2075" y="1238" type="line"/>
      <point x="161" y="564" type="line" identifier="teVKnpBcVb"/>
    </contour>
  </outline>
</glyph>
<glyph name="bracketleft" format="2">
  <advance width="1278"/>
  <unicode hex="005B"/>
  <outline>
    <contour>
      <point x="721" y="1380" type="line"/>
      <point x="1212" y="1380" type="line"/>
      <point x="1212" y="1750" type="line"/>
      <point x="256" y="1750" type="line"/>
      <point x="256" y="-150" type="line"/>
      <point x="1207" y="-150" type="line"/>
      <point x="1207" y="220" type="line"/>
      <point x="721" y="220" type="line"/>
    </contour>
  </outline>
</glyph>
<glyph name="c" format="2">
  <advance width="1587"/>
  <unicode hex="0063"/>
  <outline>
    <contour>
      <point x="121" y="0" type="line"/>
      <point x="121" y="1056" type="line"/>
      <point x="336" y="1322" type="line"/>
      <point x="1492" y="1322" type="line"/>
      <point x="1492" y="1046" type="line"/>
      <point x="707" y="1046" type="line"/>
      <point x="511" y="781" type="line"/>
      <point x="511" y="276" type="line"/>
      <point x="1492" y="276" type="line"/>
      <point x="1492" y="0" type="line"/>
    </contour>
  </outline>
</glyph>
<glyph name="e" format="2">
  <advance width="1463"/>
  <unicode hex="0065"/>
  <outline>
    <contour>
      <point x="1316" y="532" type="line"/>
      <point x="1316" y="1288" type="line"/>
      <point x="372" y="1288" type="line"/>
      <point x="162" y="1006" type="line"/>
      <point x="162" y="0" type="line"/>
      <point x="1326" y="0" type="line"/>
      <point x="1326" y="2" type="line"/>
      <point x="164" y="2" type="line"/>
      <point x="164" y="1005" type="line"/>
      <point x="374" y="1286" type="line"/>
      <point x="1314" y="1286" type="line"/>
      <point x="1314" y="534" type="line"/>
      <point x="163" y="534" type="line"/>
      <point x="163" y="532" type="line"/>
    </contour>
  </outline>
</glyph>
<glyph name="braceleft" format="2">
  <advance width="1212"/>
  <unicode hex="007B"/>
  <outline>
    <contour>
      <point x="637" y="993" type="line"/>
      <point x="637" y="1443" type="line"/>
      <point x="1142" y="1443" type="line"/>
      <point x="1142" y="1747" type="line"/>
      <point x="210" y="1747" type="line"/>
      <point x="210" y="994" type="line"/>
      <point x="30" y="805" type="line"/>
      <point x="30" y="795" type="line"/>
      <point x="210" y="606" type="line"/>
      <point x="210" y="-147" type="line"/>
      <point x="1137" y="-147" type="line"/>
      <point x="1137" y="157" type="line"/>
      <point x="637" y="157" type="line"/>
      <point x="637" y="607" type="line"/>
      <point x="458" y="795" type="line"/>
      <point x="458" y="805" type="line"/>
    </contour>
  </outline>
</glyph>
<glyph name="ordfeminine" format="2">
  <advance width="1037"/>
  <unicode hex="00AA"/>
  <outline>
    <contour>
      <point x="793" y="1264" type="line" smooth="yes"/>
      <point x="73" y="1264" type="line"/>
      <point x="73" y="842" type="line" smooth="yes"/>
      <point x="245" y="842" type="line" smooth="yes"/>
      <point x="245" y="1151" type="line" smooth="yes"/>
      <point x="793" y="1151" type="line" smooth="yes"/>
      <point x="793" y="842" type="line" smooth="yes"/>
      <point x="966" y="842" type="line" smooth="yes"/>
      <point x="966" y="1600" type="line" smooth="yes"/>
      <point x="73" y="1600" type="line" smooth="yes"/>
      <point x="73" y="1339" type="line"/>
      <point x="245" y="1339" type="line"/>
      <point x="245" y="1487" type="line" smooth="yes"/>
      <point x="793" y="1487" type="line" smooth="yes"/>
    </contour>
    <contour>
      <point x="243" y="954" type="line"/>
      <point x="243" y="842" type="line"/>
      <point x="793" y="842" type="line"/>
      <point x="793" y="954" type="line"/>
    </contour>
  </outline>
</glyph>
<glyph name="C.wide" format="2">
  <advance width="2467"/>
  <outline>
    <contour>
      <point x="168" y="0" type="line" identifier="7lPhzTnk2Z"/>
      <point x="2281" y="0" type="line" identifier="qJVLZGnkwh"/>
      <point x="2281" y="332" type="line" identifier="Y750RHTvDj"/>
      <point x="611" y="332" type="line" identifier="L2LsGnXiZ2"/>
      <point x="611" y="996" type="line" identifier="sUWsr03vF4"/>
      <point x="769" y="1268" type="line" identifier="dbOUe6OhxL"/>
      <point x="2280" y="1268" type="line" identifier="5BjRbcud80"/>
      <point x="2280" y="1600" type="line" identifier="9eJelv8BOw"/>
      <point x="456" y="1600" type="line" identifier="lfZev3ICaC"/>
      <point x="168" y="1088" type="line" identifier="V1EWIdPahq"/>
    </contour>
  </outline>
</glyph>
<glyph name="G.wide" format="2">
  <advance width="2827"/>
  <outline>
    <contour>
      <point x="169" y="0" type="line" identifier="7lPhzTnk2Z"/>
      <point x="2605" y="0" type="line" identifier="qJVLZGnkwh"/>
      <point x="2605" y="976" type="line" identifier="uek1NNj7De"/>
      <point x="1658" y="976" type="line" identifier="qcvimxjndX"/>
      <point x="1658" y="689" type="line" identifier="EARaY3Su65"/>
      <point x="2163" y="689" type="line" identifier="4m6dHLVhZq"/>
      <point x="2163" y="295" type="line" identifier="Y750RHTvDj"/>
      <point x="613" y="295" type="line" identifier="L2LsGnXiZ2"/>
      <point x="613" y="1044" type="line" identifier="sUWsr03vF4"/>
      <point x="767" y="1305" type="line" identifier="dbOUe6OhxL"/>
      <point x="2602" y="1305" type="line" identifier="5BjRbcud80"/>
      <point x="2602" y="1600" type="line" identifier="9eJelv8BOw"/>
      <point x="431" y="1600" type="line" identifier="lfZev3ICaC"/>
      <point x="169" y="1108" type="line" identifier="V1EWIdPahq"/>
    </contour>
  </outline>
</glyph>
<glyph name="I.narrow" format="2">
  <advance width="1042"/>
  <outline>
    <contour>
      <point x="746" y="0" type="line"/>
      <point x="746" y="1600" type="line"/>
      <point x="296" y="1600" type="line"/>
      <point x="296" y="0" type="line"/>
    </contour>
  </outline>
</glyph>
<glyph name="L.wide" format="2">
  <advance width="2459"/>
  <outline>
    <contour>
      <point x="266" y="0" type="line" identifier="XkJNfQlnnt"/>
      <point x="2300" y="0" type="line" identifier="82EXZEgt46"/>
      <point x="2300" y="304" type="line" identifier="cqpSxwFiM3"/>
      <point x="709" y="304" type="line" identifier="MbxRZRd8vz"/>
      <point x="709" y="1600" type="line" identifier="lYiaKSKITt"/>
      <point x="266" y="1600" type="line" identifier="XFf4mMUzYo"/>
    </contour>
  </outline>
</glyph>
<glyph name="S.wide" format="2">
  <advance width="2711"/>
  <outline>
    <contour>
      <point x="168" y="0" type="line" identifier="09VlJ0BjUX"/>
      <point x="2245" y="0" type="line" identifier="EagWihqFM8"/>
      <point x="2544" y="432" type="line"/>
      <point x="2544" y="947" type="line" identifier="KfNuQA7eZe"/>
      <point x="590" y="946" type="line" identifier="At364YZFEy"/>
      <point x="590" y="1091" type="line"/>
      <point x="756" y="1313" type="line"/>
      <point x="2500" y="1313" type="line" identifier="3ZUkG35meB"/>
      <point x="2500" y="1600" type="line" identifier="SaF9ojRFrW"/>
      <point x="471" y="1600" type="line"/>
      <point x="170" y="1149" type="line"/>
      <point x="170" y="651" type="line" identifier="3sQ8t8BZ6b"/>
      <point x="2121" y="651" type="line" identifier="yiV6OCBLHg"/>
      <point x="2121" y="492" type="line"/>
      <point x="1953" y="290" type="line" identifier="9kdl9SYsn8"/>
      <point x="168" y="290" type="line" identifier="yZDWuX8LLe"/>
    </contour>
  </outline>
</glyph>
<glyph name="U.alt" format="2">
  <advance width="2839"/>
  <outline>
    <contour>
      <point x="2247" y="1600" type="line" smooth="yes"/>
      <point x="2247" y="304" type="line"/>
      <point x="565" y="304" type="line" smooth="yes"/>
      <point x="565" y="1600" type="line"/>
      <point x="153" y="1600" type="line" smooth="yes"/>
      <point x="153" y="0" type="line" smooth="yes"/>
      <point x="2659" y="0" type="line" smooth="yes"/>
      <point x="2659" y="1600" type="line" smooth="yes"/>
    </contour>
  </outline>
</glyph>
<glyph name="Y.alt" format="2">
  <advance width="2284"/>
  <outline>
    <contour>
      <point x="296" y="502" type="line" smooth="yes"/>
      <point x="2023" y="502" type="line" smooth="yes"/>
      <point x="2309" y="1564" type="line" smooth="yes"/>
      <point x="1883" y="1620" type="line" smooth="yes"/>
      <point x="1686" y="805" type="line"/>
      <point x="620" y="805" type="line" smooth="yes"/>
      <point x="425" y="1620" type="line"/>
      <point x="8" y="1564" type="line" smooth="yes"/>
    </contour>
    <contour>
      <point x="1646" y="660" type="line"/>
      <point x="1453" y="-36" type="line"/>
      <point x="1841" y="-112" type="line"/>
      <point x="2051" y="602" type="line"/>
    </contour>
  </outline>
</glyph>
<glyph name="Z.wide" format="2">
  <advance width="2769"/>
  <outline>
    <contour>
      <point x="190" y="0" type="line"/>
      <point x="2574" y="0" type="line" identifier="pzdvPTirLJ"/>
      <point x="2574" y="292" type="line"/>
      <point x="655" y="292" type="line"/>
      <point x="655" y="458" type="line"/>
      <point x="2565" y="1113" type="line" identifier="yyb1NCCI5w"/>
      <point x="2565" y="1600" type="line" identifier="5FogYRSgkk"/>
      <point x="200" y="1600" type="line" identifier="svlFvrau4c"/>
      <point x="200" y="1308" type="line"/>
      <point x="2101" y="1308" type="line"/>
      <point x="2101" y="1226" type="line"/>
      <point x="190" y="577" type="line" identifier="teVKnpBcVb"/>
    </contour>
  </outline>
</glyph>
<glyph name="six.wide" format="2">
  <advance width="2717"/>
  <outline>
    <contour>
      <point x="188" y="0" type="line" identifier="uiw6aBUf4P"/>
      <point x="2652" y="0" type="line" identifier="jtYkxiUX6G"/>
      <point x="2652" y="940" type="line" identifier="2G5L37c87I"/>
      <point x="631" y="940" type="line"/>
      <point x="631" y="1149" type="line"/>
      <point x="785" y="1305" type="line"/>
      <point x="2626" y="1305" type="line"/>
      <point x="2626" y="1600" type="line" identifier="oGvEEuxnYv"/>
      <point x="437" y="1600" type="line" identifier="xR3pEHbMJx"/>
      <point x="188" y="1214" type="line" identifier="KnMArb0tv8"/>
    </contour>
    <contour>
      <point x="2208" y="653" type="line"/>
      <point x="2208" y="295" type="line"/>
      <point x="631" y="295" type="line"/>
      <point x="631" y="653" type="line"/>
    </contour>
  </outline>
</glyph>
<glyph name="three.wide" format="2">
  <advance width="2570"/>
  <outline>
    <contour>
      <point x="48" y="0" type="line" identifier="O9abUc1nmN"/>
      <point x="2454" y="0" type="line" identifier="kMJYMTfXCq"/>
      <point x="2454" y="942" type="line" identifier="su2XmdS8e8"/>
      <point x="2173" y="942" type="line" identifier="JQaOzDQqlF"/>
      <point x="2291" y="1142" type="line"/>
      <point x="2291" y="1600" type="line" identifier="xg8x2Ki40p"/>
      <point x="120" y="1600" type="line" identifier="pE1XSRiy68"/>
      <point x="120" y="1305" type="line" identifier="7ogBYufWpl"/>
      <point x="1847" y="1305" type="line" identifier="RHLvSX2Jv6"/>
      <point x="1847" y="1123" type="line"/>
      <point x="1746" y="942" type="line" identifier="iic1IBkDqp"/>
      <point x="620" y="941" type="line" identifier="lRLJEhXMlO"/>
      <point x="620" y="655" type="line" identifier="8aKgEELrVU"/>
      <point x="2010" y="655" type="line" identifier="Dm8zjmbhNr"/>
      <point x="2010" y="295" type="line" identifier="xv9CFHiFgB"/>
      <point x="48" y="295" type="line" identifier="YajKQV3MHP"/>
    </contour>
  </outline>
</glyph>
<glyph name="two.wide" format="2">
  <advance width="2760"/>
  <outline>
    <contour>
      <point x="207" y="0" type="line"/>
      <point x="2553" y="0" type="line" identifier="pzdvPTirLJ"/>
      <point x="2553" y="295" type="line"/>
      <point x="651" y="295" type="line"/>
      <point x="651" y="652" type="line"/>
      <point x="2557" y="652" type="line" identifier="yyb1NCCI5w"/>
      <point x="2557" y="1600" type="line" identifier="5FogYRSgkk"/>
      <point x="214" y="1600" type="line" identifier="svlFvrau4c"/>
      <point x="214" y="1305" type="line"/>
      <point x="2113" y="1305" type="line"/>
      <point x="2113" y="937" type="line"/>
      <point x="207" y="937" type="line" identifier="teVKnpBcVb"/>
    </contour>
  </outline>
</glyph>
